<?xml version="1.0" encoding="utf-8"?>
<!-- Generator: Adobe Illustrator 16.0.0, SVG Export Plug-In . SVG Version: 6.00 Build 0)  -->
<!DOCTYPE svg PUBLIC "-//W3C//DTD SVG 1.1//EN" "http://www.w3.org/Graphics/SVG/1.1/DTD/svg11.dtd">
<svg version="1.1" id="Layer_1" xmlns="http://www.w3.org/2000/svg" xmlns:xlink="http://www.w3.org/1999/xlink" x="0px" y="0px"
	 width="48px" height="48px" viewBox="0 0 48 48" enable-background="new 0 0 48 48" xml:space="preserve">
<g>
	<path fill="#FFDD00" d="M34.447,20.924h-8.333c-0.092,1.217-1.097,2.178-2.337,2.178c-1.24,0-2.245-0.961-2.336-2.178h-4.803
		c0.101,2.693,0.896,5.813,2.173,8.476c1.333,2.784,1.623,7.427,0.449,10.28c-0.013,0.034-0.026,0.066-0.039,0.099
		c-0.599,1.503,0.542,3.137,2.16,3.137h8.323c1.618,0,2.759-1.634,2.16-3.137c-0.013-0.032-0.026-0.064-0.04-0.099
		c-1.172-2.854-0.884-7.498,0.45-10.28C33.551,26.737,34.347,23.615,34.447,20.924z"/>
	<path fill="#231F20" d="M23.776,24.277c-1.946,0-3.531-1.583-3.531-3.53v-3.727h-2.785c-2.806,0-5.09-2.284-5.09-5.09
		c0-2.437,1.75-4.498,4.06-4.979C17.352,3.501,20.528,1,24.164,1c2.183,0,4.245,0.88,5.75,2.433c2.3,0.008,4.264,1.555,4.864,3.718
		c1.986,0.715,3.358,2.612,3.358,4.779c0,2.806-2.283,5.09-5.089,5.09h-5.739v3.727C27.308,22.694,25.725,24.277,23.776,24.277z
		 M24.164,3.354c-2.787,0-5.188,2.081-5.588,4.838c-0.083,0.572-0.571,1.001-1.15,1.007c-1.488,0.02-2.7,1.245-2.7,2.731
		c0,1.509,1.227,2.735,2.735,2.735h3.962c0.65,0,1.177,0.528,1.177,1.176v4.905c0,0.648,0.528,1.176,1.176,1.176
		c0.649,0,1.178-0.527,1.178-1.176v-4.905c0-0.648,0.526-1.176,1.177-1.176h6.916c1.508,0,2.735-1.227,2.735-2.735
		c0-1.315-0.939-2.443-2.233-2.683c-0.509-0.095-0.896-0.512-0.954-1.027c-0.154-1.388-1.314-2.433-2.699-2.433
		c-0.063,0-0.124,0.012-0.185,0.02l-0.142,0.019c-0.396,0.046-0.791-0.111-1.047-0.419C27.445,4.102,25.856,3.354,24.164,3.354z"/>
	<path fill="#231F20" d="M29.704,44.091h-8.323c-1.161,0-2.244-0.576-2.898-1.539c-0.644-0.95-0.776-2.148-0.354-3.208l0.04-0.099
		c1.017-2.474,0.823-6.746-0.418-9.338c-1.446-3.016-2.309-6.588-2.309-9.553c0-2.147,0.44-3.839,1.345-5.172
		c0.219-0.322,0.584-0.516,0.974-0.516h3.664c0.65,0,1.176,0.528,1.176,1.176v4.905c0,0.648,0.528,1.176,1.177,1.176
		s1.178-0.527,1.178-1.176v-4.905c0-0.648,0.526-1.176,1.176-1.176h7.195c0.392,0,0.756,0.193,0.976,0.516
		c0.904,1.335,1.344,3.027,1.344,5.172c0,2.967-0.862,6.538-2.309,9.553c-1.241,2.592-1.436,6.862-0.422,9.325l0.043,0.109
		c0.422,1.062,0.29,2.26-0.354,3.21C31.949,43.515,30.865,44.091,29.704,44.091z M18.433,17.021
		c-0.429,0.864-0.639,1.964-0.639,3.333c0,2.63,0.776,5.823,2.078,8.536c1.538,3.211,1.748,8.147,0.478,11.239l-0.034,0.087
		c-0.135,0.336-0.092,0.707,0.117,1.015c0.217,0.322,0.564,0.506,0.95,0.506h8.323c0.385,0,0.732-0.184,0.951-0.506
		c0.207-0.308,0.25-0.679,0.115-1.017l-0.029-0.072c-1.275-3.104-1.065-8.041,0.473-11.249c1.301-2.716,2.077-5.906,2.077-8.537
		c0-1.352-0.214-2.469-0.64-3.335H27.31v3.727c0,1.947-1.583,3.53-3.531,3.53c-1.946,0-3.531-1.583-3.531-3.53v-3.727H18.433
		L18.433,17.021z"/>
	<path fill="#231F20" d="M28.289,40.266h-5.494c-0.216,0-0.392-0.175-0.392-0.393c0-0.215,0.175-0.391,0.392-0.391h5.494
		c0.217,0,0.392,0.176,0.392,0.391C28.682,40.091,28.506,40.266,28.289,40.266z"/>
	<path fill="#231F20" d="M20.085,21.14c-0.211,0-0.392-0.179-0.392-0.391c0-0.22,0.18-0.393,0.392-0.393
		c0.219,0,0.392,0.173,0.392,0.393C20.479,20.96,20.305,21.14,20.085,21.14z M17.732,21.14h-0.786c-0.211,0-0.392-0.179-0.392-0.391
		c0-0.22,0.18-0.393,0.392-0.393h0.786c0.219,0,0.392,0.173,0.392,0.393C18.125,20.96,17.952,21.14,17.732,21.14z"/>
	<path fill="#231F20" d="M32.248,21.14h-0.784c-0.213,0-0.394-0.171-0.394-0.391c0-0.22,0.181-0.393,0.394-0.393h0.784
		c0.219,0,0.392,0.173,0.392,0.393C32.64,20.968,32.467,21.14,32.248,21.14z M29.895,21.14c-0.213,0-0.393-0.171-0.393-0.391
		c0-0.22,0.18-0.393,0.393-0.393c0.219,0,0.392,0.173,0.392,0.393C30.286,20.968,30.113,21.14,29.895,21.14z M27.54,21.14h-0.784
		c-0.213,0-0.393-0.171-0.393-0.391c0-0.22,0.18-0.393,0.393-0.393h0.784c0.22,0,0.393,0.173,0.393,0.393
		C27.933,20.968,27.76,21.14,27.54,21.14z"/>
</g>
</svg>
